<svg width="64" height="65" viewBox="0 0 64 65" fill="none" xmlns="http://www.w3.org/2000/svg">
<path d="M16 60.1875H14.1875C12.9375 60.1875 11.8438 59.7812 10.9062 58.9688C9.96875 58.1562 9.41667 57.1458 9.25 55.9375V55.875L6.5625 37.0625C6.52083 36.8125 6.40625 36.6042 6.21875 36.4375C6.03125 36.2708 5.8125 36.1875 5.5625 36.1875C5.3125 36.1875 5.08333 36.2812 4.875 36.4688C4.66667 36.6562 4.5625 36.8958 4.5625 37.1875C4.5625 37.2292 4.5625 37.2604 4.5625 37.2812C4.5625 37.3021 4.5625 37.3125 4.5625 37.3125L7.25 56.1875C7.54167 57.8958 8.33333 59.3229 9.625 60.4688C10.9167 61.6146 12.4375 62.1875 14.1875 62.1875H16C16.2917 62.1875 16.5312 62.0938 16.7188 61.9062C16.9062 61.7188 17 61.4792 17 61.1875C17 60.8958 16.9062 60.6562 16.7188 60.4688C16.5312 60.2812 16.2917 60.1875 16 60.1875ZM28 50.1875C27.7083 50.1875 27.4688 50.2812 27.2812 50.4688C27.0938 50.6562 27 50.8958 27 51.1875V55.1875C27 56.0208 27.2917 56.7292 27.875 57.3125C28.4583 57.8958 29.1667 58.1875 30 58.1875C30.8333 58.1875 31.5417 57.8958 32.125 57.3125C32.7083 56.7292 33 56.0208 33 55.1875V43.1875C33 42.3542 32.7083 41.6458 32.125 41.0625C31.5417 40.4792 30.8333 40.1875 30 40.1875C29.1667 40.1875 28.4583 40.4792 27.875 41.0625C27.2917 41.6458 27 42.3542 27 43.1875V47.1875C27 47.4792 27.0938 47.7188 27.2812 47.9062C27.4688 48.0938 27.7083 48.1875 28 48.1875C28.2917 48.1875 28.5312 48.0938 28.7188 47.9062C28.9062 47.7188 29 47.4792 29 47.1875V43.1875C29 42.8958 29.0938 42.6562 29.2812 42.4688C29.4688 42.2812 29.7083 42.1875 30 42.1875C30.2917 42.1875 30.5312 42.2812 30.7188 42.4688C30.9062 42.6562 31 42.8958 31 43.1875V55.1875C31 55.4792 30.9062 55.7188 30.7188 55.9062C30.5312 56.0938 30.2917 56.1875 30 56.1875C29.7083 56.1875 29.4688 56.0938 29.2812 55.9062C29.0938 55.7188 29 55.4792 29 55.1875V51.1875C29 50.8958 28.9062 50.6562 28.7188 50.4688C28.5312 50.2812 28.2917 50.1875 28 50.1875ZM14 40.1875C13.1667 40.1875 12.4583 40.4792 11.875 41.0625C11.2917 41.6458 11 42.3542 11 43.1875V55.1875C11 56.0208 11.2917 56.7292 11.875 57.3125C12.4583 57.8958 13.1667 58.1875 14 58.1875C14.8333 58.1875 15.5417 57.8958 16.125 57.3125C16.7083 56.7292 17 56.0208 17 55.1875V43.1875C17 42.3542 16.7083 41.6458 16.125 41.0625C15.5417 40.4792 14.8333 40.1875 14 40.1875ZM15 55.1875C15 55.4792 14.9062 55.7188 14.7188 55.9062C14.5312 56.0938 14.2917 56.1875 14 56.1875C13.7083 56.1875 13.4688 56.0938 13.2812 55.9062C13.0938 55.7188 13 55.4792 13 55.1875V43.1875C13 42.8958 13.0938 42.6562 13.2812 42.4688C13.4688 42.2812 13.7083 42.1875 14 42.1875C14.2917 42.1875 14.5312 42.2812 14.7188 42.4688C14.9062 42.6562 15 42.8958 15 43.1875V55.1875ZM19 43.1875V55.1875C19 56.0208 19.2917 56.7292 19.875 57.3125C20.4583 57.8958 21.1667 58.1875 22 58.1875C22.8333 58.1875 23.5417 57.8958 24.125 57.3125C24.7083 56.7292 25 56.0208 25 55.1875V43.1875C25 42.3542 24.7083 41.6458 24.125 41.0625C23.5417 40.4792 22.8333 40.1875 22 40.1875C21.1667 40.1875 20.4583 40.4792 19.875 41.0625C19.2917 41.6458 19 42.3542 19 43.1875ZM23 43.1875V55.1875C23 55.4792 22.9062 55.7188 22.7188 55.9062C22.5312 56.0938 22.2917 56.1875 22 56.1875C21.7083 56.1875 21.4688 56.0938 21.2812 55.9062C21.0938 55.7188 21 55.4792 21 55.1875V43.1875C21 42.8958 21.0938 42.6562 21.2812 42.4688C21.4688 42.2812 21.7083 42.1875 22 42.1875C22.2917 42.1875 22.5312 42.2812 22.7188 42.4688C22.9062 42.6562 23 42.8958 23 43.1875ZM44 38.1875C44.2917 38.1875 44.5312 38.0938 44.7188 37.9062C44.9062 37.7188 45 37.4792 45 37.1875C45 36.8958 44.9062 36.6562 44.7188 36.4688C44.5312 36.2812 44.2917 36.1875 44 36.1875H37C36.7083 36.1875 36.4688 36.2812 36.2812 36.4688C36.0938 36.6562 36 36.8958 36 37.1875C36 37.4792 36.0938 37.7188 36.2812 37.9062C36.4688 38.0938 36.7083 38.1875 37 38.1875H44ZM23 36.1875H11C10.7083 36.1875 10.4688 36.2812 10.2812 36.4688C10.0938 36.6562 10 36.8958 10 37.1875C10 37.4792 10.0938 37.7188 10.2812 37.9062C10.4688 38.0938 10.7083 38.1875 11 38.1875H23C23.2917 38.1875 23.5312 38.0938 23.7188 37.9062C23.9062 37.7188 24 37.4792 24 37.1875C24 36.8958 23.9062 36.6562 23.7188 36.4688C23.5312 36.2812 23.2917 36.1875 23 36.1875ZM55.9375 43.25C56.5625 42.7917 57.0625 42.2083 57.4375 41.5C57.8125 40.7917 58 40.0208 58 39.1875C58 38.8958 57.9062 38.6562 57.7188 38.4688C57.5312 38.2812 57.2917 38.1875 57 38.1875H55.3125L55.875 34.1875H57C57.8333 34.1875 58.5417 33.8958 59.125 33.3125C59.7083 32.7292 60 32.0208 60 31.1875C60 30.3542 59.7083 29.6458 59.125 29.0625C58.5417 28.4792 57.8333 28.1875 57 28.1875H50.75L51.625 26.25C51.9583 26.5 52.3229 26.6979 52.7188 26.8438C53.1146 26.9896 53.5417 27.0625 54 27.0625C54.9167 27.0625 55.7292 26.7917 56.4375 26.25C57.1458 25.7083 57.625 25 57.875 24.125C57.9167 23.9583 57.9479 23.7917 57.9688 23.625C57.9896 23.4583 58 23.2917 58 23.125C58 23.0833 58 23.0521 58 23.0312C58 23.0104 58 22.9792 58 22.9375C58.5833 22.6042 59.0625 22.125 59.4375 21.5C59.8125 20.875 60 20.2083 60 19.5C60 18.9167 59.8854 18.3646 59.6562 17.8438C59.4271 17.3229 59.1042 16.875 58.6875 16.5C58.7708 16.3333 58.8646 16.1354 58.9688 15.9062C59.0729 15.6771 59.1458 15.4375 59.1875 15.1875H59.25C59.2917 14.9375 59.3333 14.6771 59.375 14.4062C59.4167 14.1354 59.4375 13.875 59.4375 13.625C59.4375 12.7917 59.2812 12.0104 58.9688 11.2812C58.6562 10.5521 58.2292 9.91667 57.6875 9.375C57.6042 9.29167 57.5 9.22917 57.375 9.1875C57.25 9.14583 57.125 9.125 57 9.125C56.7083 9.125 56.4688 9.21875 56.2812 9.40625C56.0938 9.59375 56 9.83333 56 10.125C56 10.25 56.0208 10.375 56.0625 10.5C56.1042 10.625 56.1875 10.7292 56.3125 10.8125C56.6458 11.1875 56.9167 11.6146 57.125 12.0938C57.3333 12.5729 57.4375 13.0833 57.4375 13.625C57.4375 14.4583 57.1979 15.2188 56.7188 15.9062C56.2396 16.5938 55.6042 17.0625 54.8125 17.3125V17.375C54.6458 17.4167 54.5 17.5208 54.375 17.6875C54.25 17.8542 54.1875 18.0417 54.1875 18.25C54.1875 18.375 54.1771 18.5 54.1562 18.625C54.1354 18.75 54.1042 18.875 54.0625 19V18.9375C53.8958 19.6042 53.5417 20.1458 53 20.5625C52.4583 20.9792 51.8542 21.1875 51.1875 21.1875C50.4792 21.1875 49.8646 20.9792 49.3438 20.5625C48.8229 20.1458 48.4792 19.625 48.3125 19C48.3125 19 48.3125 18.9792 48.3125 18.9375C48.2708 18.8542 48.2396 18.7396 48.2188 18.5938C48.1979 18.4479 48.1875 18.3125 48.1875 18.1875C48.1875 17.6458 48.3229 17.1458 48.5938 16.6875C48.8646 16.2292 49.2083 15.8542 49.625 15.5625H49.6875C49.8125 15.4792 49.9271 15.3646 50.0312 15.2188C50.1354 15.0729 50.1875 14.8958 50.1875 14.6875C50.1875 14.4375 50.0833 14.2083 49.875 14C49.6667 13.7917 49.4375 13.6875 49.1875 13.6875C49.0625 13.6875 48.9583 13.7083 48.875 13.75C48.7917 13.7917 48.7292 13.8333 48.6875 13.875C47.9375 14.2917 47.3333 14.8854 46.875 15.6562C46.4167 16.4271 46.1875 17.2708 46.1875 18.1875C46.1875 18.2292 46.1875 18.2917 46.1875 18.375C46.1875 18.4583 46.1875 18.5417 46.1875 18.625V18.5625C46.1042 18.6042 46.0104 18.625 45.9062 18.625C45.8021 18.625 45.6875 18.625 45.5625 18.625C45.4375 18.625 45.3125 18.625 45.1875 18.625C45.0625 18.625 44.9375 18.6042 44.8125 18.5625H44.875C44.4167 18.4375 44.0312 18.2396 43.7188 17.9688C43.4062 17.6979 43.1458 17.375 42.9375 17C42.9375 16.9583 42.9375 16.9375 42.9375 16.9375C42.8542 16.7292 42.7812 16.5208 42.7188 16.3125C42.6562 16.1042 42.625 15.875 42.625 15.625C42.625 15.625 42.625 15.6042 42.625 15.5625C42.625 15.3125 42.5312 15.0833 42.3438 14.875C42.1562 14.6667 41.9167 14.5625 41.625 14.5625C41.375 14.5625 41.1458 14.6562 40.9375 14.8438C40.7292 15.0312 40.625 15.2708 40.625 15.5625C40.625 15.5625 40.625 15.5729 40.625 15.5938C40.625 15.6146 40.625 15.625 40.625 15.625C40.625 15.875 40.6458 16.1042 40.6875 16.3125C40.7292 16.5208 40.7708 16.7292 40.8125 16.9375C40.6458 16.9792 40.4792 17.0208 40.3125 17.0625C40.1458 17.1042 39.9792 17.125 39.8125 17.125C39.6875 17.125 39.5625 17.1146 39.4375 17.0938C39.3125 17.0729 39.1875 17.0417 39.0625 17C38.7292 16.9167 38.4375 16.7917 38.1875 16.625C37.9375 16.4583 37.7083 16.25 37.5 16V15.9375C37.2917 15.6875 37.125 15.4062 37 15.0938C36.875 14.7812 36.8125 14.4583 36.8125 14.125C36.8125 13.4167 37.0312 12.7917 37.4688 12.25C37.9062 11.7083 38.4375 11.3542 39.0625 11.1875H39.125C39.2917 11.1458 39.4479 11.0521 39.5938 10.9062C39.7396 10.7604 39.8125 10.5833 39.8125 10.375L39.875 10.1875C39.875 10.1458 39.875 10.1042 39.875 10.0625C39.875 10.0208 39.875 10 39.875 10C40.0833 9.29167 40.4375 8.6875 40.9375 8.1875C41.4375 7.6875 42.0417 7.35417 42.75 7.1875C42.75 7.3125 42.7396 7.46875 42.7188 7.65625C42.6979 7.84375 42.6875 8.02083 42.6875 8.1875C42.6875 8.72917 42.7604 9.26042 42.9062 9.78125C43.0521 10.3021 43.25 10.7708 43.5 11.1875C43.5833 11.3542 43.6979 11.4792 43.8438 11.5625C43.9896 11.6458 44.1458 11.6875 44.3125 11.6875C44.6042 11.6875 44.8438 11.5938 45.0312 11.4062C45.2188 11.2188 45.3125 10.9792 45.3125 10.6875C45.3125 10.6042 45.3021 10.5208 45.2812 10.4375C45.2604 10.3542 45.2292 10.2708 45.1875 10.1875C45.0208 9.89583 44.8958 9.58333 44.8125 9.25C44.7292 8.91667 44.6875 8.5625 44.6875 8.1875C44.6875 7.89583 44.7188 7.60417 44.7812 7.3125C44.8438 7.02083 44.9375 6.72917 45.0625 6.4375C45.3958 5.77083 45.8854 5.22917 46.5312 4.8125C47.1771 4.39583 47.8958 4.1875 48.6875 4.1875C49.7708 4.1875 50.7083 4.57292 51.5 5.34375C52.2917 6.11458 52.6875 7.0625 52.6875 8.1875C52.6875 8.22917 52.6771 8.28125 52.6562 8.34375C52.6354 8.40625 52.625 8.47917 52.625 8.5625V8.5C52.625 8.54167 52.625 8.5625 52.625 8.5625C52.625 8.85417 52.7292 9.09375 52.9375 9.28125C53.1458 9.46875 53.375 9.5625 53.625 9.5625C53.875 9.5625 54.0938 9.47917 54.2812 9.3125C54.4688 9.14583 54.5833 8.9375 54.625 8.6875C54.625 8.60417 54.6354 8.52083 54.6562 8.4375C54.6771 8.35417 54.6875 8.27083 54.6875 8.1875C54.6875 6.52083 54.0938 5.10417 52.9062 3.9375C51.7188 2.77083 50.3125 2.1875 48.6875 2.1875C47.6042 2.1875 46.6146 2.44792 45.7188 2.96875C44.8229 3.48958 44.1042 4.16667 43.5625 5C42.2292 5.04167 41.0521 5.47917 40.0312 6.3125C39.0104 7.14583 38.3333 8.1875 38 9.4375V9.5C37.0417 9.875 36.2812 10.4688 35.7188 11.2812C35.1562 12.0938 34.875 13.0208 34.875 14.0625C34.875 14.5208 34.9271 14.9479 35.0312 15.3438C35.1354 15.7396 35.2708 16.125 35.4375 16.5V16.4375C35.3542 16.5625 35.2604 16.6979 35.1562 16.8438C35.0521 16.9896 34.9792 17.125 34.9375 17.25L34.875 17.3125L34.0625 15.5C33.7292 14.7917 33.2708 14.1771 32.6875 13.6562C32.1042 13.1354 31.4375 12.7708 30.6875 12.5625L30.625 12.5C30.5417 12.4583 30.4271 12.4271 30.2812 12.4062C30.1354 12.3854 30 12.375 29.875 12.375L29.8125 12.3125L29.5 7C29.5 6.75 29.3958 6.53125 29.1875 6.34375C28.9792 6.15625 28.75 6.0625 28.5 6.0625C28.2083 6.0625 27.9688 6.15625 27.7812 6.34375C27.5938 6.53125 27.5 6.77083 27.5 7.0625C27.5 7.0625 27.5 7.07292 27.5 7.09375C27.5 7.11458 27.5 7.125 27.5 7.125L27.8125 12.375C27.6458 12.4167 27.4792 12.4688 27.3125 12.5312C27.1458 12.5938 26.9792 12.6458 26.8125 12.6875H26.875L25.5 7.9375C25.4583 7.72917 25.3438 7.55208 25.1562 7.40625C24.9688 7.26042 24.7708 7.1875 24.5625 7.1875C24.2708 7.1875 24.0312 7.28125 23.8438 7.46875C23.6562 7.65625 23.5625 7.89583 23.5625 8.1875C23.5625 8.22917 23.5625 8.27083 23.5625 8.3125C23.5625 8.35417 23.5625 8.41667 23.5625 8.5V8.4375L23.625 8.5625L23.5 8.5C23.4167 8.41667 23.3125 8.34375 23.1875 8.28125C23.0625 8.21875 22.9375 8.1875 22.8125 8.1875C22.6875 8.1875 22.5625 8.20833 22.4375 8.25C22.3125 8.29167 22.2083 8.375 22.125 8.5V8.4375L19.125 11.3125C19.0417 11.4375 18.9688 11.5521 18.9062 11.6562C18.8438 11.7604 18.8125 11.8958 18.8125 12.0625C18.8125 12.2292 18.8542 12.3854 18.9375 12.5312C19.0208 12.6771 19.1458 12.7917 19.3125 12.875L23.75 15.8125C23.7083 15.9375 23.6667 16.0625 23.625 16.1875C23.5833 16.3125 23.5417 16.4583 23.5 16.625C23.4583 16.8333 23.4271 17.0417 23.4062 17.25C23.3854 17.4583 23.375 17.6667 23.375 17.875C23.375 17.9583 23.375 18.0417 23.375 18.125C23.375 18.2083 23.375 18.2917 23.375 18.375C22.625 18.5 21.9167 18.7188 21.25 19.0312C20.5833 19.3438 19.9583 19.7292 19.375 20.1875L18.6875 19.5C18.6042 19.4167 18.5 19.3438 18.375 19.2812C18.25 19.2188 18.125 19.1875 18 19.1875C17.75 19.1875 17.5208 19.2917 17.3125 19.5C17.1042 19.7083 17 19.9375 17 20.1875C17 20.3125 17.0312 20.4375 17.0938 20.5625C17.1562 20.6875 17.2292 20.7917 17.3125 20.875L17.375 20.9375C16.5417 21.1458 15.8229 21.5208 15.2188 22.0625C14.6146 22.6042 14.1667 23.2708 13.875 24.0625H13.8125L13.75 24.375L11.3125 23.5625C11.2708 23.5208 11.2292 23.5 11.1875 23.5C11.1458 23.5 11.0833 23.5 11 23.5C10.7083 23.5 10.4688 23.5938 10.2812 23.7812C10.0938 23.9688 10 24.2083 10 24.5C10 24.7083 10.0625 24.8958 10.1875 25.0625C10.3125 25.2292 10.4792 25.3542 10.6875 25.4375L30.8125 32.375C30.9792 32.4583 31.125 32.5833 31.25 32.75C31.375 32.9167 31.4375 33.125 31.4375 33.375C31.4375 33.625 31.3438 33.8542 31.1562 34.0625C30.9688 34.2708 30.7292 34.375 30.4375 34.375C30.3958 34.375 30.3438 34.3646 30.2812 34.3438C30.2188 34.3229 30.1667 34.3125 30.125 34.3125L3.6875 25.125C3.47917 25.0417 3.3125 24.9167 3.1875 24.75C3.0625 24.5833 3 24.3958 3 24.1875C3 23.9792 3.05208 23.8021 3.15625 23.6562C3.26042 23.5104 3.39583 23.3958 3.5625 23.3125C3.64583 23.2708 3.71875 23.2396 3.78125 23.2188C3.84375 23.1979 3.91667 23.1875 4 23.1875C4.04167 23.1875 4.09375 23.1875 4.15625 23.1875C4.21875 23.1875 4.27083 23.2083 4.3125 23.25L6.875 24.125C6.95833 24.1667 7.03125 24.1875 7.09375 24.1875C7.15625 24.1875 7.20833 24.1875 7.25 24.1875C7.54167 24.1875 7.78125 24.0938 7.96875 23.9062C8.15625 23.7188 8.25 23.4792 8.25 23.1875C8.25 22.9792 8.1875 22.7917 8.0625 22.625C7.9375 22.4583 7.77083 22.3333 7.5625 22.25L5 21.375C4.83333 21.2917 4.66667 21.2396 4.5 21.2188C4.33333 21.1979 4.14583 21.1875 3.9375 21.1875C3.14583 21.1875 2.44792 21.4792 1.84375 22.0625C1.23958 22.6458 0.9375 23.3542 0.9375 24.1875C0.9375 24.8542 1.13542 25.4375 1.53125 25.9375C1.92708 26.4375 2.41667 26.7917 3 27L6.375 28.1875H3C2.16667 28.1875 1.45833 28.4792 0.875 29.0625C0.291667 29.6458 0 30.3542 0 31.1875C0 32.0208 0.291667 32.7292 0.875 33.3125C1.45833 33.8958 2.16667 34.1875 3 34.1875H23.6875L29.5 36.1875C29.625 36.2292 29.7708 36.2708 29.9375 36.3125C30.1042 36.3542 30.2917 36.375 30.5 36.375C31.3333 36.375 32.0417 36.0833 32.625 35.5C33.2083 34.9167 33.5 34.2083 33.5 33.375C33.5 32.7083 33.3021 32.1146 32.9062 31.5938C32.5104 31.0729 32.0208 30.7083 31.4375 30.5L30.5 30.1875H57C57.2917 30.1875 57.5312 30.2812 57.7188 30.4688C57.9062 30.6562 58 30.8958 58 31.1875C58 31.4792 57.9062 31.7188 57.7188 31.9062C57.5312 32.0938 57.2917 32.1875 57 32.1875H36.4375C36.1875 32.1875 35.9583 32.2812 35.75 32.4688C35.5417 32.6562 35.4375 32.8958 35.4375 33.1875C35.4375 33.4792 35.5417 33.7188 35.75 33.9062C35.9583 34.0938 36.1875 34.1875 36.4375 34.1875H53.875L53.25 38.5C52.9583 38.625 52.6875 38.7708 52.4375 38.9375C52.1875 39.1042 51.9583 39.2708 51.75 39.4375V39.3125C51.75 39.2292 51.75 39.1667 51.75 39.125C51.75 39.0833 51.75 39.0208 51.75 38.9375C51.75 38.6042 51.6875 38.2812 51.5625 37.9688C51.4375 37.6562 51.2708 37.375 51.0625 37.125C50.8125 36.8333 50.5104 36.6146 50.1562 36.4688C49.8021 36.3229 49.4167 36.25 49 36.25C48.5833 36.25 48.1979 36.3229 47.8438 36.4688C47.4896 36.6146 47.1875 36.8333 46.9375 37.125C46.7292 37.375 46.5625 37.6562 46.4375 37.9688C46.3125 38.2812 46.25 38.6042 46.25 38.9375C46.25 39.0208 46.25 39.0938 46.25 39.1562C46.25 39.2188 46.25 39.2708 46.25 39.3125L46.625 42.25C46.5 42.2083 46.3854 42.1875 46.2812 42.1875C46.1771 42.1875 46.0833 42.1875 46 42.1875C45.0417 42.1875 44.1354 42.3438 43.2812 42.6562C42.4271 42.9688 41.6667 43.3958 41 43.9375V43.1875C41 42.3542 40.7083 41.6458 40.125 41.0625C39.5417 40.4792 38.8333 40.1875 38 40.1875C37.1667 40.1875 36.4583 40.4792 35.875 41.0625C35.2917 41.6458 35 42.3542 35 43.1875V55.1875C35 56.0208 35.2917 56.7292 35.875 57.3125C36.4583 57.8958 37.1667 58.1875 38 58.1875C38.375 58.1875 38.7396 58.1146 39.0938 57.9688C39.4479 57.8229 39.7708 57.625 40.0625 57.375C40.3125 57.9167 40.6042 58.4167 40.9375 58.875C41.2708 59.3333 41.625 59.7708 42 60.1875H20C19.7083 60.1875 19.4688 60.2812 19.2812 60.4688C19.0938 60.6562 19 60.8958 19 61.1875C19 61.4792 19.0938 61.7188 19.2812 61.9062C19.4688 62.0938 19.7083 62.1875 20 62.1875H45.8125C45.8125 62.1875 45.8333 62.1875 45.875 62.1875C45.9167 62.1875 45.9479 62.1875 45.9688 62.1875C45.9896 62.1875 46 62.1875 46 62.1875C46.5417 62.1875 47.0729 62.1354 47.5938 62.0312C48.1146 61.9271 48.6042 61.7708 49.0625 61.5625L49 61.625C49.4583 61.7917 49.9375 61.9271 50.4375 62.0312C50.9375 62.1354 51.4583 62.1875 52 62.1875C52.9167 62.1875 53.8021 61.8958 54.6562 61.3125C55.5104 60.7292 56.3125 59.8958 57.0625 58.8125C57.1458 58.7292 57.1979 58.6354 57.2188 58.5312C57.2396 58.4271 57.25 58.3333 57.25 58.25C57.25 57.9583 57.1562 57.7188 56.9688 57.5312C56.7812 57.3438 56.5417 57.25 56.25 57.25C56.0833 57.25 55.9271 57.2812 55.7812 57.3438C55.6354 57.4062 55.5208 57.5208 55.4375 57.6875C54.8958 58.4792 54.3229 59.0938 53.7188 59.5312C53.1146 59.9688 52.5417 60.1875 52 60.1875C51.5417 60.1875 51.0938 60.1354 50.6562 60.0312C50.2188 59.9271 49.7917 59.7708 49.375 59.5625L49.4375 59.625C49.3542 59.5833 49.2812 59.5521 49.2188 59.5312C49.1562 59.5104 49.0833 59.5 49 59.5C48.9167 59.5 48.8438 59.5104 48.7812 59.5312C48.7188 59.5521 48.6458 59.5833 48.5625 59.625C48.1875 59.7917 47.7812 59.9271 47.3438 60.0312C46.9062 60.1354 46.4583 60.1875 46 60.1875C46 60.1875 45.9896 60.1875 45.9688 60.1875C45.9479 60.1875 45.9375 60.1875 45.9375 60.1875C44.4375 60.1458 43.0729 58.9271 41.8438 56.5312C40.6146 54.1354 40 52.0208 40 50.1875C40 48.5208 40.5833 47.1042 41.75 45.9375C42.9167 44.7708 44.3333 44.1875 46 44.1875C46.1667 44.1875 46.3229 44.1979 46.4688 44.2188C46.6146 44.2396 46.7708 44.25 46.9375 44.25H46.875V44.3125C46.9583 44.8542 47.1979 45.3021 47.5938 45.6562C47.9896 46.0104 48.4583 46.1875 49 46.1875C49.5417 46.1875 50.0104 46.0104 50.4062 45.6562C50.8021 45.3021 51.0417 44.8542 51.125 44.3125V44.25C51.25 44.25 51.3854 44.2396 51.5312 44.2188C51.6771 44.1979 51.8333 44.1875 52 44.1875C53.6667 44.1875 55.0833 44.7708 56.25 45.9375C57.4167 47.1042 58 48.5208 58 50.1875C57.9583 50.9375 57.8646 51.6667 57.7188 52.375C57.5729 53.0833 57.375 53.75 57.125 54.375V54.3125C57.125 54.3542 57.1146 54.4062 57.0938 54.4688C57.0729 54.5312 57.0625 54.6042 57.0625 54.6875C57.0625 54.9792 57.1562 55.2188 57.3438 55.4062C57.5312 55.5938 57.7708 55.6875 58.0625 55.6875C58.2708 55.6875 58.4688 55.625 58.6562 55.5C58.8438 55.375 58.9583 55.2083 59 55C59.2917 54.2917 59.5208 53.5312 59.6875 52.7188C59.8542 51.9062 59.9583 51.0625 60 50.1875C60 48.6875 59.625 47.3229 58.875 46.0938C58.125 44.8646 57.1458 43.9167 55.9375 43.25ZM3 32.1875C2.70833 32.1875 2.46875 32.0938 2.28125 31.9062C2.09375 31.7188 2 31.4792 2 31.1875C2 30.8958 2.09375 30.6562 2.28125 30.4688C2.46875 30.2812 2.70833 30.1875 3 30.1875H12.1875L17.9375 32.1875H3ZM56 19.5C56 19.4167 56.0104 19.3333 56.0312 19.25C56.0521 19.1667 56.0833 19.0833 56.125 19V18.9375C56.375 18.8125 56.6042 18.6771 56.8125 18.5312C57.0208 18.3854 57.2292 18.2292 57.4375 18.0625C57.6042 18.2292 57.7396 18.4375 57.8438 18.6875C57.9479 18.9375 58 19.2083 58 19.5C58 19.9167 57.8646 20.3021 57.5938 20.6562C57.3229 21.0104 57 21.25 56.625 21.375H56.5625C56.3542 21.4583 56.1875 21.5833 56.0625 21.75C55.9375 21.9167 55.875 22.1042 55.875 22.3125C55.875 22.3542 55.875 22.3958 55.875 22.4375C55.875 22.4792 55.8958 22.5208 55.9375 22.5625C55.9375 22.6458 55.9479 22.7292 55.9688 22.8125C55.9896 22.8958 56 23 56 23.125C56 23.2083 55.9896 23.2917 55.9688 23.375C55.9479 23.4583 55.9375 23.5417 55.9375 23.625V23.5625C55.8125 24.0208 55.5729 24.3854 55.2188 24.6562C54.8646 24.9271 54.4583 25.0625 54 25.0625C53.9167 25.0625 53.8229 25.0625 53.7188 25.0625C53.6146 25.0625 53.5208 25.0417 53.4375 25H53.5C53.2917 24.9583 53.0938 24.875 52.9062 24.75C52.7188 24.625 52.5625 24.4792 52.4375 24.3125L53.125 22.75C53.25 22.7083 53.3542 22.6667 53.4375 22.625C53.5208 22.5833 53.6042 22.5417 53.6875 22.5C54.2292 22.1667 54.7083 21.7396 55.125 21.2188C55.5417 20.6979 55.8333 20.125 56 19.5ZM50.8125 23.125L48.5625 28.1875H42.25L42.5 27.3125C42.5 27.3125 42.5104 27.2812 42.5312 27.2188C42.5521 27.1562 42.5625 27.1042 42.5625 27.0625C42.5625 27.0625 42.5521 27.0417 42.5312 27C42.5104 26.9583 42.5 26.9167 42.5 26.875L40.9375 19C41.0625 18.9583 41.1979 18.9167 41.3438 18.875C41.4896 18.8333 41.625 18.7708 41.75 18.6875L41.6875 18.75C41.9792 19.0833 42.2917 19.375 42.625 19.625C42.9583 19.875 43.3125 20.0833 43.6875 20.25H43.75L44.9375 26.3125C44.9792 26.5208 45.0833 26.6979 45.25 26.8438C45.4167 26.9896 45.6042 27.0625 45.8125 27.0625C45.8542 27.0625 45.875 27.0625 45.875 27.0625C45.875 27.0625 45.8958 27.0625 45.9375 27.0625C46.1458 27.0625 46.3333 27.0104 46.5 26.9062C46.6667 26.8021 46.7708 26.6667 46.8125 26.5H46.875L48.75 22.5C49.0417 22.7083 49.3542 22.8646 49.6875 22.9688C50.0208 23.0729 50.375 23.125 50.75 23.125H50.8125ZM46.75 20.5C46.8333 20.625 46.9062 20.7396 46.9688 20.8438C47.0312 20.9479 47.1042 21.0417 47.1875 21.125L46.3125 22.9375L45.875 20.625C46.0417 20.625 46.1979 20.6146 46.3438 20.5938C46.4896 20.5729 46.6458 20.5417 46.8125 20.5H46.75ZM38.875 19L39.25 20.8125C39.125 20.8542 39 20.8854 38.875 20.9062C38.75 20.9271 38.625 20.9375 38.5 20.9375C38.4167 20.9375 38.3333 20.9271 38.25 20.9062C38.1667 20.8854 38.0833 20.875 38 20.875C37.5833 20.75 37.2396 20.5104 36.9688 20.1562C36.6979 19.8021 36.5625 19.3958 36.5625 18.9375C36.5625 18.8542 36.5625 18.7604 36.5625 18.6562C36.5625 18.5521 36.5833 18.4583 36.625 18.375V18.4375C36.625 18.3542 36.6458 18.2812 36.6875 18.2188C36.7292 18.1562 36.75 18.1042 36.75 18.0625C37 18.2708 37.2708 18.4479 37.5625 18.5938C37.8542 18.7396 38.1667 18.8542 38.5 18.9375H38.5625C38.6042 18.9375 38.6562 18.9479 38.7188 18.9688C38.7812 18.9896 38.8333 19 38.875 19ZM37.5 22.8125C37.6667 22.8542 37.8333 22.8854 38 22.9062C38.1667 22.9271 38.3542 22.9375 38.5625 22.9375C38.7292 22.9375 38.9167 22.9167 39.125 22.875C39.3333 22.8333 39.5208 22.7917 39.6875 22.75H39.625L40.5 27.0625L40.1875 28.1875H40L37.5 22.8125ZM37.8125 28.1875H35.8125C35.8542 28.1875 35.8958 28.1771 35.9375 28.1562C35.9792 28.1354 36.0208 28.125 36.0625 28.125L37.4375 27.3125L37.8125 28.1875ZM30.9375 14.875L29.875 15.5C29.75 15.5833 29.6354 15.6979 29.5312 15.8438C29.4271 15.9896 29.375 16.1667 29.375 16.375C29.375 16.625 29.4792 16.8542 29.6875 17.0625C29.8958 17.2708 30.125 17.375 30.375 17.375C30.5 17.375 30.6042 17.3542 30.6875 17.3125C30.7708 17.2708 30.8542 17.2292 30.9375 17.1875H30.875L32.25 16.4375L33.5625 19.125L32.375 19.8125C32.25 19.8958 32.1354 20.0104 32.0312 20.1562C31.9271 20.3021 31.875 20.4792 31.875 20.6875C31.875 20.9375 31.9792 21.1667 32.1875 21.375C32.3958 21.5833 32.625 21.6875 32.875 21.6875C33 21.6875 33.1042 21.6771 33.1875 21.6562C33.2708 21.6354 33.3542 21.6042 33.4375 21.5625H33.375L34.4375 20.9375L36.5625 25.5L35.0625 26.375C34.8958 26.4583 34.7708 26.5729 34.6875 26.7188C34.6042 26.8646 34.5625 27.0417 34.5625 27.25C34.5625 27.4583 34.625 27.6458 34.75 27.8125C34.875 27.9792 35.0417 28.1042 35.25 28.1875H31.75L30.625 26.625L33.1875 25.125C33.3125 25.0417 33.4271 24.9271 33.5312 24.7812C33.6354 24.6354 33.6875 24.4583 33.6875 24.25C33.6875 24 33.5833 23.7708 33.375 23.5625C33.1667 23.3542 32.9375 23.25 32.6875 23.25C32.6042 23.25 32.5104 23.2604 32.4062 23.2812C32.3021 23.3021 32.2292 23.3542 32.1875 23.4375V23.375L29.5 24.9375L27.8125 22.5L29.8125 21.3125C29.9375 21.2292 30.0521 21.1146 30.1562 20.9688C30.2604 20.8229 30.3125 20.6458 30.3125 20.4375C30.3125 20.1875 30.2083 19.9583 30 19.75C29.7917 19.5417 29.5625 19.4375 29.3125 19.4375C29.2292 19.4375 29.1458 19.4479 29.0625 19.4688C28.9792 19.4896 28.8958 19.5208 28.8125 19.5625L26.625 20.8125L26 19.9375C25.7917 19.6458 25.6354 19.3229 25.5312 18.9688C25.4271 18.6146 25.375 18.25 25.375 17.875C25.375 16.875 25.7292 16.0208 26.4375 15.3125C27.1458 14.6042 27.9792 14.25 28.9375 14.25C29.1458 14.25 29.3438 14.2708 29.5312 14.3125C29.7188 14.3542 29.8958 14.3958 30.0625 14.4375C30.2292 14.4792 30.3854 14.5417 30.5312 14.625C30.6771 14.7083 30.8125 14.7917 30.9375 14.875ZM21.4375 11.9375L22.75 10.625L24.75 12.6875L25.125 13.8125C25.0833 13.8542 25.0312 13.9062 24.9688 13.9688C24.9062 14.0312 24.8542 14.0833 24.8125 14.125L21.4375 11.9375ZM15.6875 24.75C15.9375 24.2083 16.3125 23.75 16.8125 23.375C17.3125 23 17.875 22.8125 18.5 22.8125C18.5417 22.8125 18.5625 22.8125 18.5625 22.8125L18.3125 23.625C18.1458 24 17.9062 24.3438 17.5938 24.6562C17.2812 24.9688 16.9167 25.1875 16.5 25.3125L15.625 25.0625L15.6875 24.75ZM18.9375 26.1875C19.1875 25.9375 19.4167 25.6562 19.625 25.3438C19.8333 25.0312 20 24.6875 20.125 24.3125H20.1875L20.3125 23.875C20.3958 23.9583 20.4896 24.0208 20.5938 24.0625C20.6979 24.1042 20.8125 24.125 20.9375 24.125C21.2292 24.125 21.4688 24.0312 21.6562 23.8438C21.8438 23.6562 21.9375 23.4167 21.9375 23.125C21.9375 23 21.9167 22.8854 21.875 22.7812C21.8333 22.6771 21.7708 22.5833 21.6875 22.5L20.8125 21.625C21.2708 21.2917 21.7604 21.0104 22.2812 20.7812C22.8021 20.5521 23.3333 20.3958 23.875 20.3125H23.9375C24.0208 20.4375 24.0938 20.5625 24.1562 20.6875C24.2188 20.8125 24.2917 20.9375 24.375 21.0625L29.3125 28.1875H24.75L18.9375 26.1875ZM39 55.1875C39 55.4792 38.9062 55.7188 38.7188 55.9062C38.5312 56.0938 38.2917 56.1875 38 56.1875C37.7083 56.1875 37.4688 56.0938 37.2812 55.9062C37.0938 55.7188 37 55.4792 37 55.1875V43.1875C37 42.8958 37.0938 42.6562 37.2812 42.4688C37.4688 42.2812 37.7083 42.1875 38 42.1875C38.2917 42.1875 38.5312 42.2812 38.7188 42.4688C38.9062 42.6562 39 42.8958 39 43.1875V46.3125C38.6667 46.8958 38.4167 47.5104 38.25 48.1562C38.0833 48.8021 38 49.4792 38 50.1875C38.0417 51.1042 38.1562 51.9896 38.3438 52.8438C38.5312 53.6979 38.7708 54.5208 39.0625 55.3125V55.1875H39ZM55 40.1875H55.8125C55.6042 40.7708 55.25 41.25 54.75 41.625C54.25 42 53.6667 42.1875 53 42.1875H52.1875C52.3958 41.6042 52.75 41.125 53.25 40.75C53.75 40.375 54.3333 40.1875 55 40.1875ZM48.875 44.0625L48.25 39.0625C48.25 39.0208 48.25 39 48.25 39C48.25 39 48.25 38.9792 48.25 38.9375C48.25 38.7292 48.3229 38.5521 48.4688 38.4062C48.6146 38.2604 48.7917 38.1875 49 38.1875C49.2083 38.1875 49.3854 38.2604 49.5312 38.4062C49.6771 38.5521 49.75 38.7292 49.75 38.9375C49.75 38.9792 49.75 39 49.75 39C49.75 39 49.75 39.0208 49.75 39.0625L49.125 44.0625C49.125 44.1042 49.1146 44.1354 49.0938 44.1562C49.0729 44.1771 49.0417 44.1875 49 44.1875C48.9583 44.1875 48.9271 44.1771 48.9062 44.1562C48.8854 44.1354 48.875 44.1042 48.875 44.0625ZM53.375 46.375C53.3333 46.3333 53.2708 46.3021 53.1875 46.2812C53.1042 46.2604 53.0208 46.25 52.9375 46.25C52.6458 46.25 52.4062 46.3542 52.2188 46.5625C52.0312 46.7708 51.9375 47 51.9375 47.25C51.9375 47.4583 51.9896 47.6354 52.0938 47.7812C52.1979 47.9271 52.3125 48.0417 52.4375 48.125C52.7708 48.2917 53.0417 48.5 53.25 48.75C53.4583 49 53.625 49.2917 53.75 49.625C53.8333 49.8333 53.9583 50 54.125 50.125C54.2917 50.25 54.4792 50.3125 54.6875 50.3125C54.9792 50.3125 55.2188 50.2188 55.4062 50.0312C55.5938 49.8438 55.6875 49.6042 55.6875 49.3125C55.6875 49.2292 55.6875 49.1562 55.6875 49.0938C55.6875 49.0312 55.6667 48.9792 55.625 48.9375C55.4167 48.3958 55.125 47.9062 54.75 47.4688C54.375 47.0312 53.9375 46.6667 53.4375 46.375H53.375Z" fill="#2E7D32"/>
</svg>
